<?xml version="1.0" encoding="UTF-8" standalone="no"?>
<!DOCTYPE svg PUBLIC "-//W3C//DTD SVG 1.1//EN" "http://www.w3.org/Graphics/SVG/1.1/DTD/svg11.dtd">
<svg width="100%" height="100%" viewBox="0 0 1080 957" version="1.1" xmlns="http://www.w3.org/2000/svg" xmlns:xlink="http://www.w3.org/1999/xlink" xml:space="preserve" xmlns:serif="http://www.serif.com/" style="fill-rule:evenodd;clip-rule:evenodd;stroke-linejoin:round;stroke-miterlimit:2;">
    <g id="Isotipo-branco" serif:id="Isotipo branco" transform="matrix(1,0,0,29.90625,0,0)">
        <rect x="0" y="0" width="1080" height="32" style="fill:none;"/>
        <clipPath id="_clip1">
            <rect x="0" y="0" width="1080" height="32"/>
        </clipPath>
        <g clip-path="url(#_clip1)">
            <g id="Logo" transform="matrix(1.262258,0,0,0.042207,-84.861217,-4.314038)">
                <path d="M822.099,769.463C820.165,784.856 817.52,801.989 799.946,823.872C767.383,864.417 721.797,858.543 689.5,858.546C370.22,858.574 370.232,859.064 342.473,858.639C339.146,858.588 342.032,856.531 356.974,837.878C360.025,834.07 392.831,793.117 395.709,790.754C396.764,789.886 397.022,790.282 718.499,790.075C725.967,790.07 743.751,792.14 751.471,771.491C754.608,763.101 752.872,762.732 752.986,535.5C753.055,398.171 753.535,397.874 750.093,388.64C743.544,371.073 739.596,373.597 629.173,289.935C618.654,281.964 551.36,230.979 497.178,190.97C494.454,188.959 491.854,192.564 465.242,212.144C461.74,214.72 266.453,360.858 221.761,393.852C174.542,428.711 175.005,429.176 127.785,463.887C110.045,476.927 109.088,479.034 106.972,476.147C103.739,471.734 67.234,421.913 67.23,420.504C67.224,418.443 68.337,419.049 142.817,362.921C157.422,351.915 248.632,283.179 325.811,225.918C381.768,184.401 493.284,99.617 495.422,99.945C496.585,100.123 521.928,119.364 526.861,123.004C586.19,166.783 850.173,365.438 918.232,415.865C921.413,418.223 925.061,418.657 921.127,424.23C918.847,427.459 918.625,427.216 892.078,464.197C882.849,477.053 882.851,477.377 881.498,477.399C880.175,477.421 880.361,476.846 838.222,445.883C831.288,440.789 831.467,440.686 824.493,435.512C821.729,433.461 822.391,436.859 822.353,465.5C822.204,576.696 822.822,750.897 822.099,769.463Z" style="fill:white;"/>
                <path d="M566.436,494.445C545.264,520.452 452.021,631.25 442.035,643.115C354.317,747.348 275.831,844.098 268.365,849.302C260.146,855.03 238.522,861.47 223.016,842.924C213.225,831.214 212.413,832.002 99.025,697.903C67.946,661.147 65.961,660.727 67.843,658.815C68.902,657.739 98.1,633.009 103.435,628.423C118.21,615.722 118.931,615.186 120.388,616.617C120.408,616.637 147.593,648.468 153.616,655.402C166.252,669.953 247.319,765.399 248.487,765.557C250.632,765.847 259.091,753.469 275.112,735.167C288.47,719.908 287.091,718.854 437.959,540.887C535.655,425.643 535.377,423.303 538.5,424.499C539.684,424.952 574.737,454.43 577.865,457.06C586.163,464.039 591.051,465.321 587.051,470.12C578.906,479.891 568.096,492.508 566.436,494.445Z" style="fill:white;"/>
            </g>
        </g>
    </g>
</svg>
